<?xml version="1.0" encoding="UTF-8"?>
<svg version="1.1" xmlns="http://www.w3.org/2000/svg" width="352" height="277">
<path d="M0 0 C0.73605469 0.19835449 1.47210938 0.39670898 2.23046875 0.60107422 C35.14210604 9.62592764 65.13208496 32.46234608 82.73535156 61.76611328 C88.57740464 72.08556997 93.25446636 82.76339907 97 94 C115.81 94.495 115.81 94.495 135 95 C135 113.15 135 131.3 135 150 C118.665 150.495 118.665 150.495 102 151 C101.46375 153.92875 100.9275 156.8575 100.375 159.875 C93.20452519 196.28100972 72.92332061 228.9406637 42.0625 250.0625 C28.317421 259.11369841 12.95394149 265.99114443 -3 270 C-4.18980469 270.31710937 -5.37960938 270.63421875 -6.60546875 270.9609375 C-27.62379306 275.63167623 -52.37354408 274.91493957 -73 269 C-73.73605469 268.80164551 -74.47210938 268.60329102 -75.23046875 268.39892578 C-108.92593899 259.15913388 -139.65686593 235.42465822 -157 205 C-166.4150704 187.52873535 -171.90667086 170.53681562 -175 151 C-185.89 150.67 -196.78 150.34 -208 150 C-208 131.85 -208 113.7 -208 95 C-195.46 94.67 -182.92 94.34 -170 94 C-168.02 88.72 -166.04 83.44 -164 78 C-162.45495027 74.66917736 -160.92575257 71.46603523 -159.1875 68.25 C-158.76009521 67.45198975 -158.33269043 66.65397949 -157.89233398 65.83178711 C-140.95113098 34.89962199 -111.19240016 11.6743527 -77.75 1.0625 C-75.17680882 0.31527997 -72.60060468 -0.34652835 -70 -1 C-68.81019531 -1.31710938 -67.62039062 -1.63421875 -66.39453125 -1.9609375 C-45.37620694 -6.63167623 -20.62645592 -5.91493957 0 0 Z " fill="#FDFCFA" transform="translate(208,4)"/>
<path d="M0 0 C20.13 0 40.26 0 61 0 C61 1.32 61 2.64 61 4 C61.99 4.33 62.98 4.66 64 5 C64.495 9.455 64.495 9.455 65 14 C65.66 14 66.32 14 67 14 C66.67 16.31 66.34 18.62 66 21 C68.66735273 18.51047079 70.55746343 16.36591866 72 13 C72.99 13 73.98 13 75 13 C75.99 15.31 76.98 17.62 78 20 C78.99 17.525 78.99 17.525 80 15 C79.34 15 78.68 15 78 15 C78 14.34 78 13.68 78 13 C78.66 12.67 79.32 12.34 80 12 C81.01529541 9.67328135 82.01488198 7.3396553 83 5 C83.66 4.34 84.32 3.68 85 3 C85.99 3 86.98 3 88 3 C88.25 9.625 88.25 9.625 86 13 C86.99 13.33 87.98 13.66 89 14 C88 15 88 15 85.4375 15.0625 C84.633125 15.041875 83.82875 15.02125 83 15 C83.495 17.475 83.495 17.475 84 20 C85.98 20.495 85.98 20.495 88 21 C87.938125 20.236875 87.87625 19.47375 87.8125 18.6875 C88 16 88 16 89.1875 14.1875 C91.55982525 12.63321794 93.22041345 12.77462812 96 13 C96.625 15.375 96.625 15.375 97 18 C96.34 18.66 95.68 19.32 95 20 C94.01 20 93.02 20 92 20 C92 20.66 92 21.32 92 22 C93.98 21.34 95.96 20.68 98 20 C97.34 21.32 96.68 22.64 96 24 C90 24 84 24 78 24 C75.99598989 24.30830925 73.99488234 24.63729412 72 25 C72 23.68 72 22.36 72 21 C71.34 21.66 70.68 22.32 70 23 C82.73224507 41.70715337 99.583764 55.14190029 122.19140625 59.5 C142.86642716 62.21425916 163.89730795 58.38372184 181 46 C188.64618128 39.79758407 196.32875829 32.79292558 201 24 C198.9540713 22.90396677 197.14194351 22.03339847 194.875 21.5 C193 21 193 21 191 19 C190.34 20.65 189.68 22.3 189 24 C185.37 24 181.74 24 178 24 C177.01 22.02 177.01 22.02 176 20 C175.34 20 174.68 20 174 20 C174 23.3 174 26.6 174 30 C171.625 30.625 171.625 30.625 169 31 C168.01 30.01 168.01 30.01 167 29 C166.01 30.485 166.01 30.485 165 32 C164.01 31.67 163.02 31.34 162 31 C160.64560332 28.29120665 160.93498549 25.99066732 161 23 C160.071875 23.165 159.14375 23.33 158.1875 23.5 C153.14266379 24.23700282 148.08564289 24.08276815 143 24 C142.125 20.8125 142.125 20.8125 142 17 C144.8125 14.5625 144.8125 14.5625 146.50390625 13.390625 C149.21769978 10.86814328 149.30400789 7.53795991 150 4 C150.66 3.34 151.32 2.68 152 2 C154.125 2.375 154.125 2.375 156 3 C156.103125 3.639375 156.20625 4.27875 156.3125 4.9375 C156.539375 5.618125 156.76625 6.29875 157 7 C157.99 7.33 158.98 7.66 160 8 C160 8.99 160 9.98 160 11 C158.88625 10.9690625 158.88625 10.9690625 157.75 10.9375 C154.87605673 11.72134074 154.87605673 11.72134074 153.77734375 14.0703125 C152.77653611 16.3588977 151.84934229 18.65126015 151 21 C151.99 20.67 152.98 20.34 154 20 C155.22969878 16.48809191 155.22969878 16.48809191 156 13 C156.99 13 157.98 13 159 13 C158.67 15.64 158.34 18.28 158 21 C158.99 20.505 158.99 20.505 160 20 C160.36885639 18.11766144 160.64544704 16.21685262 160.875 14.3125 C161.66272557 9.14920507 162.39198829 5.82024769 166 2 C167.32 2 168.64 2 170 2 C170.33 2.99 170.66 3.98 171 5 C171.66 4.01 172.32 3.02 173 2 C174.65 2.33 176.3 2.66 178 3 C178.45826062 8.7282577 177.55825861 11.4998494 174 16 C173.34 16.66 172.68 17.32 172 18 C171.53709779 20.66242821 171.53709779 20.66242821 171.375 23.625 C171.30023438 24.62789062 171.22546875 25.63078125 171.1484375 26.6640625 C171.07496094 27.82035156 171.07496094 27.82035156 171 29 C171.66 29 172.32 29 173 29 C172.67 25.7 172.34 22.4 172 19 C173.32 18.34 174.64 17.68 176 17 C177.73425773 14.96682993 177.73425773 14.96682993 179 13 C180.65 13.33 182.3 13.66 184 14 C184 15.65 184 17.3 184 19 C182.02 19.495 182.02 19.495 180 20 C180 20.66 180 21.32 180 22 C182.50358872 21.51792644 182.50358872 21.51792644 185 20 C186.37967524 16.46485707 186.37967524 16.46485707 187 13 C187.556875 13.185625 188.11375 13.37125 188.6875 13.5625 C191.399133 14.07551165 193.34371039 13.6640724 196 13 C196.33 13.66 196.66 14.32 197 15 C197.66 14.34 198.32 13.68 199 13 C201.625 12.875 201.625 12.875 204 13 C204.625 15.375 204.625 15.375 205 18 C204.34 18.66 203.68 19.32 203 20 C202.01 20 201.02 20 200 20 C200 20.66 200 21.32 200 22 C202.49505992 21.74324087 202.49505992 21.74324087 205 20 C206.00922122 17.73476109 206.62560437 15.49758252 207.2265625 13.09375 C208.32821046 8.68715815 209.6948053 4.350649 211 0 C231.46 0 251.92 0 273 0 C270.65942751 18.72457989 270.65942751 18.72457989 267.4375 27.9375 C267.08671387 28.9589209 266.73592773 29.9803418 266.37451172 31.03271484 C259.27255604 51.03305224 247.84140676 67.94837501 233 83 C231.75863281 84.26070312 231.75863281 84.26070312 230.4921875 85.546875 C218.52605255 97.03729205 204.27692903 105.6826003 189 112 C187.87851563 112.47050781 186.75703125 112.94101562 185.6015625 113.42578125 C160.67011837 123.46350044 132.12515637 125.2087563 106 119 C104.76765625 118.73316406 103.5353125 118.46632813 102.265625 118.19140625 C78.00624253 112.43364142 57.00554205 98.93152726 39 82 C38.11441406 81.21109375 38.11441406 81.21109375 37.2109375 80.40625 C15.61528778 60.34583604 2.39492691 28.73912291 0 0 Z " fill="#FDDB01" transform="translate(35,154)"/>
<path d="M0 0 C14.35403915 13.24392137 25.25034306 28.26680841 33.69458008 45.85668945 C34.02087402 46.52982178 34.34716797 47.2029541 34.68334961 47.89648438 C36.32049309 51.44304773 37.48306576 54.84472155 38.29418945 58.67138672 C38.46543335 59.47028824 38.63667725 60.26918976 38.81311035 61.09230042 C39.00193787 61.99661049 39.00193787 61.99661049 39.19458008 62.91918945 C30.72784271 63.17480399 22.26273281 63.36986545 13.79308319 63.48912334 C9.85944252 63.54638377 5.92845257 63.62393584 1.99633789 63.74902344 C-1.80349932 63.86913737 -5.60079975 63.93442797 -9.40238953 63.96283913 C-10.84754894 63.98306418 -12.29257916 64.02256808 -13.73664856 64.08222008 C-25.05064936 64.53071053 -25.05064936 64.53071053 -29.43757629 60.50190735 C-31.4642577 57.72386154 -33.1523487 54.9299179 -34.80541992 51.91918945 C-46.65678421 37.856062 -64.43726024 27.91930608 -82.80541992 25.91918945 C-104.28483682 24.29045935 -124.98478927 28.93620163 -141.78979492 43.0793457 C-142.45495117 43.68649414 -143.12010742 44.29364258 -143.80541992 44.91918945 C-144.57370117 45.61915039 -145.34198242 46.31911133 -146.13354492 47.0402832 C-150.58390208 51.10728793 -150.58390208 51.10728793 -153.81602478 56.11109924 C-155.21448361 58.91703808 -156.4766279 60.80262688 -158.80541992 62.91918945 C-163.7152229 64.19752843 -168.57832565 63.96954627 -173.61010742 63.7980957 C-175.05880773 63.78129296 -176.50755945 63.76848963 -177.95632935 63.75950623 C-181.75532183 63.72526809 -185.55117827 63.63698787 -189.34893799 63.53717041 C-193.22983369 63.44481893 -197.1112403 63.40393886 -200.99291992 63.35864258 C-208.59851086 63.26234434 -216.20152475 63.10891159 -223.80541992 62.91918945 C-223.23763671 59.33442574 -222.67231947 56.1434323 -221.20385742 52.81762695 C-220.72154663 51.7205542 -220.72154663 51.7205542 -220.22949219 50.60131836 C-219.88329834 49.83996582 -219.53710449 49.07861328 -219.18041992 48.29418945 C-218.82069092 47.49803223 -218.46096191 46.701875 -218.09033203 45.8815918 C-202.75680505 12.48737742 -175.12640483 -13.84644597 -140.80541992 -27.08081055 C-92.26585333 -44.18232236 -38.41890818 -34.54005303 0 0 Z " fill="#FDDC01" transform="translate(263.805419921875,36.080810546875)"/>
<path d="M0 0 C71.61 0 143.22 0 217 0 C217 17.49 217 34.98 217 53 C145.39 53 73.78 53 0 53 C0 35.51 0 18.02 0 0 Z " fill="#030300" transform="translate(1,100)"/>
<path d="M0 0 C40.26 0 80.52 0 122 0 C122 17.49 122 34.98 122 53 C81.74 53 41.48 53 0 53 C0 35.51 0 18.02 0 0 Z " fill="#F9D800" transform="translate(220,100)"/>
<path d="M0 0 C5.15943327 -0.64492916 8.02400921 0.76812836 12.171875 3.5703125 C15.71255707 6.33930745 18.41918126 9.78448336 20 14 C20.125 16.75 20.125 16.75 20 19 C18.35 19.33 16.7 19.66 15 20 C15.495 20.99 15.495 20.99 16 22 C16.8548913 30.84483694 15.35494798 37.39763159 9.75 44.3125 C4.13551289 50.21699161 -0.32672793 51.18528263 -8.3125 51.5625 C-15.55771271 51.39050682 -20.67210385 50.03019097 -26 45 C-31.19056477 38.13544798 -32.98414642 30.515006 -32 22 C-29.85523102 14.60942665 -24.4438818 9.98880546 -18.234375 5.8125 C-14.94084208 4.61485166 -11.7032439 4.79013767 -8.25 4.875 C-7.55261719 4.88402344 -6.85523438 4.89304687 -6.13671875 4.90234375 C-4.42433042 4.92580112 -2.71211996 4.96166896 -1 5 C-0.67 3.35 -0.34 1.7 0 0 Z " fill="#191600" transform="translate(256,101)"/>
<path d="M0 0 C2.125 0.375 2.125 0.375 4 1 C4.103125 1.639375 4.20625 2.27875 4.3125 2.9375 C4.6528125 3.9584375 4.6528125 3.9584375 5 5 C5.99 5.33 6.98 5.66 8 6 C8 6.99 8 7.98 8 9 C6.88625 8.9690625 6.88625 8.9690625 5.75 8.9375 C2.87605673 9.72134074 2.87605673 9.72134074 1.77734375 12.0703125 C0.77653611 14.3588977 -0.15065771 16.65126015 -1 19 C-0.01 18.67 0.98 18.34 2 18 C3.22969878 14.48809191 3.22969878 14.48809191 4 11 C4.99 11 5.98 11 7 11 C6.67 13.64 6.34 16.28 6 19 C6.66 18.67 7.32 18.34 8 18 C8.36885639 16.11766144 8.64544704 14.21685262 8.875 12.3125 C9.66272557 7.14920507 10.39198829 3.82024769 14 0 C15.32 0 16.64 0 18 0 C18.33 0.99 18.66 1.98 19 3 C19.66 2.01 20.32 1.02 21 0 C23.475 0.495 23.475 0.495 26 1 C26.45826062 6.7282577 25.55825861 9.4998494 22 14 C21.34 14.66 20.68 15.32 20 16 C19.53709779 18.66242821 19.53709779 18.66242821 19.375 21.625 C19.30023438 22.62789062 19.22546875 23.63078125 19.1484375 24.6640625 C19.09945312 25.43492187 19.05046875 26.20578125 19 27 C19.66 27 20.32 27 21 27 C20.505 22.05 20.505 22.05 20 17 C21.32 16.34 22.64 15.68 24 15 C25.73425773 12.96682993 25.73425773 12.96682993 27 11 C29.475 11.495 29.475 11.495 32 12 C32 13.65 32 15.3 32 17 C30.68 17.33 29.36 17.66 28 18 C28 18.66 28 19.32 28 20 C30.50358872 19.51792644 30.50358872 19.51792644 33 18 C34.37967524 14.46485707 34.37967524 14.46485707 35 11 C35.556875 11.185625 36.11375 11.37125 36.6875 11.5625 C39.399133 12.07551165 41.34371039 11.6640724 44 11 C44.495 11.99 44.495 11.99 45 13 C45.66 12.34 46.32 11.68 47 11 C49.625 10.875 49.625 10.875 52 11 C52.625 13.375 52.625 13.375 53 16 C52.34 16.66 51.68 17.32 51 18 C50.01 18 49.02 18 48 18 C48 18.66 48 19.32 48 20 C50.50358872 19.51792644 50.50358872 19.51792644 53 18 C54.37967524 14.46485707 54.37967524 14.46485707 55 11 C55.99 11 56.98 11 58 11 C58 11.66 58 12.32 58 13 C58.99 12.34 59.98 11.68 61 11 C61.99 11 62.98 11 64 11 C63.67 13.64 63.34 16.28 63 19 C65.78750144 17.60624928 65.89266287 15.83755139 67 13 C67.66 12.34 68.32 11.68 69 11 C71.625 11.375 71.625 11.375 74 12 C73.67 13.32 73.34 14.64 73 16 C72.34 16 71.68 16 71 16 C70.505 15.01 70.505 15.01 70 14 C69.67 15.65 69.34 17.3 69 19 C70.65 18.67 72.3 18.34 74 18 C74.4640625 16.5459375 74.4640625 16.5459375 74.9375 15.0625 C76 12 76 12 77 11 C78.66617115 10.95936168 80.33388095 10.957279 82 11 C82.625 13.375 82.625 13.375 83 16 C82.34 16.66 81.68 17.32 81 18 C80.01 18 79.02 18 78 18 C78 18.66 78 19.32 78 20 C79.98 19.34 81.96 18.68 84 18 C83.34 19.32 82.68 20.64 82 22 C75.07 22 68.14 22 61 22 C60 18 60 18 61 15 C60.34 15 59.68 15 59 15 C58.01 18.465 58.01 18.465 57 22 C55.37536158 22.05395478 53.75021459 22.09277195 52.125 22.125 C50.76761719 22.15980469 50.76761719 22.15980469 49.3828125 22.1953125 C47 22 47 22 45 20 C44.01 19.7525 44.01 19.7525 43 19.5 C41 19 41 19 39 17 C38.34 18.65 37.68 20.3 37 22 C33.37 22 29.74 22 26 22 C25.34 20.68 24.68 19.36 24 18 C23.34 18 22.68 18 22 18 C22 21.3 22 24.6 22 28 C19.625 28.625 19.625 28.625 17 29 C16.34 28.34 15.68 27.68 15 27 C14.34 27.99 13.68 28.98 13 30 C12.01 29.67 11.02 29.34 10 29 C8.64560332 26.29120665 8.93498549 23.99066732 9 21 C8.071875 21.165 7.14375 21.33 6.1875 21.5 C1.14266379 22.23700282 -3.91435711 22.08276815 -9 22 C-9.875 18.8125 -9.875 18.8125 -10 15 C-7.1875 12.5625 -7.1875 12.5625 -5.49609375 11.390625 C-2.78230022 8.86814328 -2.69599211 5.53795991 -2 2 C-1.34 1.34 -0.68 0.68 0 0 Z " fill="#2F2F2F" transform="translate(187,156)"/>
<path d="M0 0 C13.2 0 26.4 0 40 0 C38.02 0.99 38.02 0.99 36 2 C36 3.65 36 5.3 36 7 C34.94941406 6.93039063 33.89882812 6.86078125 32.81640625 6.7890625 C25.00966966 6.42736401 19.05566845 6.1937576 12.69921875 11.3515625 C7.77286908 16.13068793 4.96459299 20.31062763 4.6875 27.25 C4.7952627 32.22366292 6.20623542 36.40403603 8 41 C8.309375 41.969375 8.61875 42.93875 8.9375 43.9375 C10.28699925 46.5571162 11.27984946 46.94216368 14 48 C15.26457031 48.76376953 15.26457031 48.76376953 16.5546875 49.54296875 C20.9897524 51.41856876 24.62480496 51.33523334 29.375 51.1875 C30.20644531 51.17396484 31.03789062 51.16042969 31.89453125 51.14648438 C33.92997066 51.11139059 35.96507291 51.05759228 38 51 C37.505 51.99 37.505 51.99 37 53 C24.79 53 12.58 53 0 53 C0 35.51 0 18.02 0 0 Z " fill="#F7D600" transform="translate(220,100)"/>
<path d="M0 0 C5.15943327 -0.64492916 8.02400921 0.76812836 12.171875 3.5703125 C15.71255707 6.33930745 18.41918126 9.78448336 20 14 C20.125 16.75 20.125 16.75 20 19 C15.25 20.125 15.25 20.125 13 19 C13 19.99 13 20.98 13 22 C12.34 22 11.68 22 11 22 C11 24.97 11 27.94 11 31 C10.34 31 9.68 31 9 31 C9 29.02 9 27.04 9 25 C6.69 25.33 4.38 25.66 2 26 C3.3125 24.5 3.3125 24.5 5 23 C5.99 23 6.98 23 8 23 C8 22.34 8 21.68 8 21 C6.9275 21.33 5.855 21.66 4.75 22 C1 23 1 23 -3 23 C-2.34 19.37 -1.68 15.74 -1 12 C-1.66 12 -2.32 12 -3 12 C-3.66 15.63 -4.32 19.26 -5 23 C-5.99 23 -6.98 23 -8 23 C-6.125 15.375 -6.125 15.375 -5 12 C-7.31 12 -9.62 12 -12 12 C-12.33 13.65 -12.66 15.3 -13 17 C-13.66 17 -14.32 17 -15 17 C-15 16.01 -15 15.02 -15 14 C-15.66 14 -16.32 14 -17 14 C-17 13.01 -17 12.02 -17 11 C-12.49907826 9.24354273 -8.82612943 8.72156946 -4 9 C-3.34 9.33 -2.68 9.66 -2 10 C-2.33 9.34 -2.66 8.68 -3 8 C-9.05106191 7.78084685 -14.30201576 7.81779327 -20 10 C-20.33 10.66 -20.66 11.32 -21 12 C-20.75 9.625 -20.75 9.625 -20 7 C-16.44319517 4.36796442 -12.475198 4.77116716 -8.25 4.875 C-7.55261719 4.88402344 -6.85523438 4.89304687 -6.13671875 4.90234375 C-4.42433042 4.92580112 -2.71211996 4.96166896 -1 5 C-0.67 3.35 -0.34 1.7 0 0 Z " fill="#201C00" transform="translate(256,101)"/>
<path d="M0 0 C0.73605469 0.19835449 1.47210938 0.39670898 2.23046875 0.60107422 C37.87732625 10.37596512 67.48270667 35.34085528 85.76953125 67.0703125 C88.27687198 71.80870297 88.27687198 71.80870297 89 74 C88.67 74.99 88.34 75.98 88 77 C87.53851563 76.07960938 87.07703125 75.15921875 86.6015625 74.2109375 C68.91305052 39.59937052 40.16333692 15.34327372 3.1875 3.25 C-19.77015969 -3.73638158 -44.62548598 -4.23748653 -68 1 C-68.69963867 1.1556543 -69.39927734 1.31130859 -70.12011719 1.47167969 C-95.64718915 7.44508606 -117.6271513 21.65295586 -136 40 C-136.7115625 40.69996094 -137.423125 41.39992187 -138.15625 42.12109375 C-148.65849125 53.16135965 -156.3801826 66.76324341 -162.4765625 80.62109375 C-164 84 -164 84 -166 87 C-165.57029148 80.43799281 -163.08573686 75.55385009 -160 69.8125 C-159.50306641 68.87994385 -159.00613281 67.9473877 -158.49414062 66.98657227 C-141.38405654 35.50215538 -111.82106658 11.87383945 -77.75 1.0625 C-75.17680882 0.31527997 -72.60060468 -0.34652835 -70 -1 C-68.81019531 -1.31710938 -67.62039062 -1.63421875 -66.39453125 -1.9609375 C-45.37620694 -6.63167623 -20.62645592 -5.91493957 0 0 Z " fill="#FEFCED" transform="translate(208,4)"/>
<path d="M0 0 C2.125 0.375 2.125 0.375 4 1 C4.103125 1.639375 4.20625 2.27875 4.3125 2.9375 C4.6528125 3.9584375 4.6528125 3.9584375 5 5 C5.99 5.33 6.98 5.66 8 6 C8 6.99 8 7.98 8 9 C6.88625 8.9690625 6.88625 8.9690625 5.75 8.9375 C2.87605673 9.72134074 2.87605673 9.72134074 1.77734375 12.0703125 C0.77653611 14.3588977 -0.15065771 16.65126015 -1 19 C-0.01 18.67 0.98 18.34 2 18 C3.22969878 14.48809191 3.22969878 14.48809191 4 11 C4.99 11 5.98 11 7 11 C6.67 13.64 6.34 16.28 6 19 C6.66 18.67 7.32 18.34 8 18 C8.36885639 16.11766144 8.64544704 14.21685262 8.875 12.3125 C9.66272557 7.14920507 10.39198829 3.82024769 14 0 C15.32 0 16.64 0 18 0 C18.33 0.99 18.66 1.98 19 3 C19.66 2.01 20.32 1.02 21 0 C23 1 23 1 23.8125 3.125 C24.0737839 7.13135307 22.75781494 9.41405752 21 13 C20.01 12.67 19.02 12.34 18 12 C17.01 13.485 17.01 13.485 16 15 C15.01 15 14.02 15 13 15 C13.66 15.66 14.32 16.32 15 17 C15.265625 19.27734375 15.265625 19.27734375 15.25 21.9375 C15.25515625 22.81277344 15.2603125 23.68804687 15.265625 24.58984375 C15 27 15 27 13 30 C12.01 29.67 11.02 29.34 10 29 C8.64560332 26.29120665 8.93498549 23.99066732 9 21 C8.071875 21.165 7.14375 21.33 6.1875 21.5 C1.14266379 22.23700282 -3.91435711 22.08276815 -9 22 C-9.875 18.8125 -9.875 18.8125 -10 15 C-7.1875 12.5625 -7.1875 12.5625 -5.49609375 11.390625 C-2.78230022 8.86814328 -2.69599211 5.53795991 -2 2 C-1.34 1.34 -0.68 0.68 0 0 Z " fill="#191919" transform="translate(187,156)"/>
<path d="M0 0 C0.66 0 1.32 0 2 0 C1.67 1.65 1.34 3.3 1 5 C1.99 4.01 2.98 3.02 4 2 C7.11728368 3.36508501 9.08663738 4.86919698 11.3125 7.4375 C11.84488281 8.03433594 12.37726563 8.63117188 12.92578125 9.24609375 C13.45751953 10.11427734 13.45751953 10.11427734 14 11 C13.67 11.99 13.34 12.98 13 14 C13.66 14 14.32 14 15 14 C14.34 18.29 13.68 22.58 13 27 C8.07870506 26.01574101 6.59461087 25.1837982 3 22 C5.21928194 24.90802461 6.92969143 26.95312762 10 29 C10 29.66 10 30.32 10 31 C6.17670414 30.4833384 4.62665115 29.74085338 2 27 C1.34 26.896875 0.68 26.79375 0 26.6875 C-2 26 -2 26 -3.6875 23.25 C-6.04869292 17.40323657 -6.12210055 12.22712792 -6 6 C-5.36578125 5.88785156 -4.7315625 5.77570313 -4.078125 5.66015625 C-3.39234375 5.44230469 -2.7065625 5.22445312 -2 5 C-0.70339566 2.50965614 -0.70339566 2.50965614 0 0 Z " fill="#0E0C00" transform="translate(230,117)"/>
<path d="M0 0 C0.45732667 5.71658336 -0.47726246 8.48649253 -4 13 C-3.34 12.34 -2.68 11.68 -2 11 C-1.01 11 -0.02 11 1 11 C1.125 16.75 1.125 16.75 0 19 C0.99 19 1.98 19 3 19 C2.938125 18.236875 2.87625 17.47375 2.8125 16.6875 C3 14 3 14 4.1875 12.125 C6 11 6 11 8.6875 11.3125 C9.8321875 11.6528125 9.8321875 11.6528125 11 12 C10.67 13.65 10.34 15.3 10 17 C9.01 17.33 8.02 17.66 7 18 C7 18.66 7 19.32 7 20 C8.65 19.34 10.3 18.68 12 18 C12 18.99 12 19.98 12 21 C7.27685687 21.77112541 2.78478822 22.09764874 -2 22 C-2.495 19.525 -2.495 19.525 -3 17 C-3.309375 17.825 -3.61875 18.65 -3.9375 19.5 C-6 22 -6 22 -8.1328125 22.4375 C-10.54748604 22.49961379 -12.64105784 22.53714053 -15 22 C-17.29013653 18.5647952 -17.17842973 17.014669 -17 13 C-17.66 13 -18.32 13 -19 13 C-19 12.34 -19 11.68 -19 11 C-18.34 11 -17.68 11 -17 11 C-16.896875 10.0925 -16.79375 9.185 -16.6875 8.25 C-15.99585051 4.98038425 -15.17865079 3.46282263 -13 1 C-11.68 1.33 -10.36 1.66 -9 2 C-9.33 4.31 -9.66 6.62 -10 9 C-9.34 9.33 -8.68 9.66 -8 10 C-7.896875 9.0925 -7.79375 8.185 -7.6875 7.25 C-6.55736224 1.90753057 -5.64308538 0 0 0 Z " fill="#333333" transform="translate(158,156)"/>
<path d="M0 0 C0.99 0 1.98 0 3 0 C3.25 6.625 3.25 6.625 1 10 C1.99 10.33 2.98 10.66 4 11 C3 12 3 12 0.4375 12.0625 C-0.366875 12.041875 -1.17125 12.02125 -2 12 C-1.67 13.65 -1.34 15.3 -1 17 C0.32 17.33 1.64 17.66 3 18 C2.938125 17.236875 2.87625 16.47375 2.8125 15.6875 C3 13 3 13 4.1875 11.1875 C6.55982525 9.63321794 8.22041345 9.77462812 11 10 C11.625 12.375 11.625 12.375 12 15 C11.34 15.66 10.68 16.32 10 17 C9.01 17 8.02 17 7 17 C7 17.66 7 18.32 7 19 C8.98 18.34 10.96 17.68 13 17 C12.34 18.32 11.68 19.64 11 21 C5 21 -1 21 -7 21 C-9.00401011 21.30830925 -11.00511766 21.63729412 -13 22 C-13 20.68 -13 19.36 -13 18 C-13.474375 18.495 -13.94875 18.99 -14.4375 19.5 C-18.12299037 21.65736022 -21.80958198 21.62289998 -26 21 C-26.66 20.34 -27.32 19.68 -28 19 C-27.80366875 15.92414381 -27.43195792 13.70477345 -25.8125 11.0625 C-23.05898071 9.448368 -20.99453478 10.26800261 -18 11 C-18.33 13.31 -18.66 15.62 -19 18 C-16.33264727 15.51047079 -14.44253657 13.36591866 -13 10 C-12.01 10 -11.02 10 -10 10 C-9.01 12.31 -8.02 14.62 -7 17 C-6.34 15.35 -5.68 13.7 -5 12 C-5.66 12 -6.32 12 -7 12 C-7 11.34 -7 10.68 -7 10 C-6.34 9.67 -5.68 9.34 -5 9 C-3.98470459 6.67328135 -2.98511802 4.3396553 -2 2 C-1.34 1.34 -0.68 0.68 0 0 Z " fill="#171717" transform="translate(120,157)"/>
<path d="M0 0 C3.3 0 6.6 0 10 0 C9.34 0.66 8.68 1.32 8 2 C7.53603307 4.89223503 7.53603307 4.89223503 7.375 8.125 C7.25125 10.06375 7.1275 12.0025 7 14 C11.29 14 15.58 14 20 14 C19.87625 12.06125 19.7525 10.1225 19.625 8.125 C19.55539063 7.03445312 19.48578125 5.94390625 19.4140625 4.8203125 C19.26746509 1.86953526 19.26746509 1.86953526 17 0 C20.63 0 24.26 0 28 0 C26.02 0.99 26.02 0.99 24 2 C24.08054472 6.2924552 24.19341523 10.58345467 24.3125 14.875 C24.33505859 16.09832031 24.35761719 17.32164062 24.38085938 18.58203125 C24.4340332 20.33193359 24.4340332 20.33193359 24.48828125 22.1171875 C24.51446533 23.19597168 24.54064941 24.27475586 24.56762695 25.38623047 C24.71031006 26.24877441 24.85299316 27.11131836 25 28 C25.99 28.66 26.98 29.32 28 30 C24.37 30 20.74 30 17 30 C17.99 29.67 18.98 29.34 20 29 C20 24.71 20 20.42 20 16 C15.71 16 11.42 16 7 16 C7.12375 17.93875 7.2475 19.8775 7.375 21.875 C7.44460937 22.96554688 7.51421875 24.05609375 7.5859375 25.1796875 C7.73253491 28.13046474 7.73253491 28.13046474 10 30 C6.37 30 2.74 30 -1 30 C-0.01 29.34 0.98 28.68 2 28 C2.45037172 25.31985437 2.45037172 25.31985437 2.36328125 22.1875 C2.36263672 21.02992188 2.36199219 19.87234375 2.36132812 18.6796875 C2.34521484 17.46539062 2.32910156 16.25109375 2.3125 15 C2.31572266 13.78570312 2.31894531 12.57140625 2.32226562 11.3203125 C2.75222568 5.07764783 2.75222568 5.07764783 0 0 Z " fill="#CEB200" transform="translate(115,114)"/>
<path d="M0 0 C3.63 0 7.26 0 11 0 C9.02 0.99 9.02 0.99 7 2 C7 5.96 7 9.92 7 14 C8.98 13.01 10.96 12.02 13 11 C13.33 11.94875 13.66 12.8975 14 13.875 C16.60325762 20.02472452 21.31227015 25.31227015 26 30 C22.7 30 19.4 30 16 30 C16.66 29.67 17.32 29.34 18 29 C16.73636527 27.03701399 15.4638372 25.07975066 14.1875 23.125 C13.12595703 21.48917969 13.12595703 21.48917969 12.04296875 19.8203125 C10.13041264 16.83529884 10.13041264 16.83529884 7 15 C7.0868276 17.12577907 7.1949951 19.25069581 7.3125 21.375 C7.39951172 23.15003906 7.39951172 23.15003906 7.48828125 24.9609375 C7.65714844 25.96382812 7.82601563 26.96671875 8 28 C8.99 28.66 9.98 29.32 11 30 C7.37 30 3.74 30 0 30 C0.66 29.34 1.32 28.68 2 28 C2.3115683 25.31473382 2.3115683 25.31473382 2.265625 22.1875 C2.26820312 21.02992188 2.27078125 19.87234375 2.2734375 18.6796875 C2.26570313 17.46539062 2.25796875 16.25109375 2.25 15 C2.25773437 13.78570312 2.26546875 12.57140625 2.2734375 11.3203125 C2.27085938 10.16273437 2.26828125 9.00515625 2.265625 7.8125 C2.26336914 6.74644531 2.26111328 5.68039063 2.25878906 4.58203125 C2.25880798 1.83676539 2.25880798 1.83676539 0 0 Z " fill="#E8C800" transform="translate(18,114)"/>
<path d="M0 0 C0.99 0 1.98 0 3 0 C3 0.66 3 1.32 3 2 C3.99 1.34 4.98 0.68 6 0 C6.99 0 7.98 0 9 0 C8.67 2.64 8.34 5.28 8 8 C10.78750144 6.60624928 10.89266287 4.83755139 12 2 C12.66 1.34 13.32 0.68 14 0 C16.625 0.375 16.625 0.375 19 1 C18.67 2.32 18.34 3.64 18 5 C17.34 5 16.68 5 16 5 C15.67 4.34 15.34 3.68 15 3 C14.67 4.65 14.34 6.3 14 8 C15.65 7.67 17.3 7.34 19 7 C19.309375 6.030625 19.61875 5.06125 19.9375 4.0625 C21 1 21 1 22 0 C23.66617115 -0.04063832 25.33388095 -0.042721 27 0 C27.625 2.375 27.625 2.375 28 5 C27.34 5.66 26.68 6.32 26 7 C25.01 7 24.02 7 23 7 C23 7.66 23 8.32 23 9 C24.98 8.34 26.96 7.68 29 7 C28.34 8.32 27.68 9.64 27 11 C20.07 11 13.14 11 6 11 C5 7 5 7 6 4 C5.34 4 4.68 4 4 4 C3.34 6.31 2.68 8.62 2 11 C0.02 10.34 -1.96 9.68 -4 9 C-3.34 8.34 -2.68 7.68 -2 7 C-1.28072705 4.68234271 -0.6090107 2.34904126 0 0 Z " fill="#1A1700" transform="translate(242,167)"/>
<path d="M0 0 C2.125 0.375 2.125 0.375 4 1 C4.103125 1.639375 4.20625 2.27875 4.3125 2.9375 C4.6528125 3.9584375 4.6528125 3.9584375 5 5 C5.99 5.33 6.98 5.66 8 6 C8 6.99 8 7.98 8 9 C6.88625 8.9690625 6.88625 8.9690625 5.75 8.9375 C2.87605673 9.72134074 2.87605673 9.72134074 1.77734375 12.0703125 C0.77653611 14.3588977 -0.15065771 16.65126015 -1 19 C-0.01 18.67 0.98 18.34 2 18 C3.22969878 14.48809191 3.22969878 14.48809191 4 11 C4.99 11 5.98 11 7 11 C7 14.63 7 18.26 7 22 C1.72 22 -3.56 22 -9 22 C-9.33 19.69 -9.66 17.38 -10 15 C-7.1875 12.5625 -7.1875 12.5625 -5.49609375 11.390625 C-2.78230022 8.86814328 -2.69599211 5.53795991 -2 2 C-1.34 1.34 -0.68 0.68 0 0 Z " fill="#131313" transform="translate(187,156)"/>
<path d="M0 0 C6.93 0 13.86 0 21 0 C21 2.64 21 5.28 21 8 C19 4.25 19 4.25 19 2 C15.7 2 12.4 2 9 2 C8.67 5.96 8.34 9.92 8 14 C9.65 13.67 11.3 13.34 13 13 C13.66 11.68 14.32 10.36 15 9 C15 12.63 15 16.26 15 20 C14.34 19.01 13.68 18.02 13 17 C11.35 16.67 9.7 16.34 8 16 C8 20.29 8 24.58 8 29 C9.44375 28.855625 10.8875 28.71125 12.375 28.5625 C13.18710938 28.48128906 13.99921875 28.40007812 14.8359375 28.31640625 C17.04272805 28.10909886 17.04272805 28.10909886 19 27 C19.72159424 25.35636866 20.39351421 23.68949614 21 22 C21.33 22 21.66 22 22 22 C22 24.64 22 27.28 22 30 C14.74 30 7.48 30 0 30 C0.99 29.34 1.98 28.68 3 28 C3.510605 25.28995497 3.510605 25.28995497 3.51171875 22.1171875 C3.56489258 20.36728516 3.56489258 20.36728516 3.61914062 18.58203125 C3.64169922 17.35871094 3.66425781 16.13539063 3.6875 14.875 C3.72166016 13.64394531 3.75582031 12.41289063 3.79101562 11.14453125 C3.87371564 8.0964449 3.94279427 5.04865429 4 2 C2.68 1.67 1.36 1.34 0 1 C0 0.67 0 0.34 0 0 Z " fill="#FBD900" transform="translate(146,114)"/>
<path d="M0 0 C3.0625 -0.625 3.0625 -0.625 7 0 C9.87742694 2.97861119 11.87391542 6.46275599 14 10 C15.31003718 12.04324781 16.62246013 14.08496834 17.9375 16.125 C18.948125 17.73375 19.95875 19.3425 21 21 C21.33 14.73 21.66 8.46 22 2 C20.68 1.34 19.36 0.68 18 0 C20.64 0 23.28 0 26 0 C25.67 0.66 25.34 1.32 25 2 C24.34 2 23.68 2 23 2 C23 11.24 23 20.48 23 30 C22.34 30 21.68 30 21 30 C19.32859076 27.55000265 17.77287459 25.10289049 16.25 22.5625 C15.40253535 21.16706052 14.55356302 19.77253563 13.703125 18.37890625 C13.27322266 17.6739502 12.84332031 16.96899414 12.40039062 16.24267578 C10.02322337 12.43572696 7.51417602 8.71738883 5 5 C4.9132018 8.79152334 4.85967793 12.58279296 4.8125 16.375 C4.78736328 17.45523438 4.76222656 18.53546875 4.73632812 19.6484375 C4.72666016 20.6796875 4.71699219 21.7109375 4.70703125 22.7734375 C4.6913208 23.72653809 4.67561035 24.67963867 4.65942383 25.66162109 C4.77181396 26.43328613 4.8842041 27.20495117 5 28 C5.99 28.66 6.98 29.32 8 30 C5.36 30 2.72 30 0 30 C0.66 29.34 1.32 28.68 2 28 C2.3115683 25.31473382 2.3115683 25.31473382 2.265625 22.1875 C2.26820313 21.02992188 2.27078125 19.87234375 2.2734375 18.6796875 C2.26570312 17.46539062 2.25796875 16.25109375 2.25 15 C2.25773438 13.78570312 2.26546875 12.57140625 2.2734375 11.3203125 C2.27085937 10.16273437 2.26828125 9.00515625 2.265625 7.8125 C2.26336914 6.74644531 2.26111328 5.68039063 2.25878906 4.58203125 C2.25880798 1.83676539 2.25880798 1.83676539 0 0 Z " fill="#E9CA00" transform="translate(172,114)"/>
<path d="M0 0 C3.10546875 -0.55078125 3.10546875 -0.55078125 7 0 C9.64159158 2.59217274 11.42262071 5.64821935 13.3125 8.8125 C13.83650391 9.64587891 14.36050781 10.47925781 14.90039062 11.33789062 C15.87233904 12.88728342 16.83418193 14.44309473 17.7824707 16.00708008 C18.81468851 17.6966718 19.9017225 19.35258375 21 21 C21.33 14.73 21.66 8.46 22 2 C20.68 1.34 19.36 0.68 18 0 C20.64 0 23.28 0 26 0 C25.34 0.66 24.68 1.32 24 2 C23.62731113 4.91188245 23.62731113 4.91188245 23.5859375 8.3203125 C23.54726563 9.57714844 23.50859375 10.83398438 23.46875 12.12890625 C23.4378125 13.44761719 23.406875 14.76632813 23.375 16.125 C23.33681971 17.46486918 23.29776794 18.80471383 23.2578125 20.14453125 C23.1632797 23.42954619 23.07772844 26.71455138 23 30 C22.34 30 21.68 30 21 30 C19.73486328 28.35107422 19.73486328 28.35107422 18.3203125 26.0546875 C17.80339844 25.22453125 17.28648437 24.394375 16.75390625 23.5390625 C16.21636719 22.65992188 15.67882812 21.78078125 15.125 20.875 C14.06573075 19.1636745 13.00584797 17.45272859 11.9453125 15.7421875 C11.44290039 14.9284668 10.94048828 14.11474609 10.42285156 13.27636719 C8.67254818 10.47612204 6.85432311 7.73221521 5 5 C4.9132018 8.79152334 4.85967793 12.58279296 4.8125 16.375 C4.78736328 17.45523438 4.76222656 18.53546875 4.73632812 19.6484375 C4.72666016 20.6796875 4.71699219 21.7109375 4.70703125 22.7734375 C4.6913208 23.72653809 4.67561035 24.67963867 4.65942383 25.66162109 C4.77181396 26.43328613 4.8842041 27.20495117 5 28 C5.99 28.66 6.98 29.32 8 30 C5.36 30 2.72 30 0 30 C0.66 29.34 1.32 28.68 2 28 C2.3115683 25.31473382 2.3115683 25.31473382 2.265625 22.1875 C2.26820313 21.02992188 2.27078125 19.87234375 2.2734375 18.6796875 C2.26570313 17.46539062 2.25796875 16.25109375 2.25 15 C2.25773437 13.78570312 2.26546875 12.57140625 2.2734375 11.3203125 C2.27085937 10.16273437 2.26828125 9.00515625 2.265625 7.8125 C2.26336914 6.74644531 2.26111328 5.68039063 2.25878906 4.58203125 C2.25880798 1.83676539 2.25880798 1.83676539 0 0 Z " fill="#131100" transform="translate(283,114)"/>
<path d="M0 0 C7.92 0 15.84 0 24 0 C24 2.97 24 5.94 24 9 C23.34 9 22.68 9 22 9 C21.79375 8.05125 21.5875 7.1025 21.375 6.125 C20.694375 4.578125 20.694375 4.578125 20 3 C16.97588298 1.76951131 16.97588298 1.76951131 14 1 C14.08053241 5.45909298 14.1934045 9.9167834 14.3125 14.375 C14.33505859 15.64601562 14.35761719 16.91703125 14.38085938 18.2265625 C14.41630859 19.43828125 14.45175781 20.65 14.48828125 21.8984375 C14.51446533 23.01911621 14.54064941 24.13979492 14.56762695 25.29443359 C14.71031006 26.18727051 14.85299316 27.08010742 15 28 C15.99 28.66 16.98 29.32 18 30 C14.04 30 10.08 30 6 30 C6.99 29.34 7.98 28.68 9 28 C9.51104922 25.19189856 9.51104922 25.19189856 9.51171875 21.8984375 C9.54716797 20.68671875 9.58261719 19.475 9.61914062 18.2265625 C9.64169922 16.95554688 9.66425781 15.68453125 9.6875 14.375 C9.72166016 13.09625 9.75582031 11.8175 9.79101562 10.5 C9.87372479 7.33342068 9.94280085 4.16712636 10 1 C6.53015795 1.76502599 6.53015795 1.76502599 3 3 C1.46853622 6.00594421 1.46853622 6.00594421 1 9 C0.67 9 0.34 9 0 9 C0 6.03 0 3.06 0 0 Z " fill="#F9D700" transform="translate(59,114)"/>
<path d="M0 0 C6.93 0 13.86 0 21 0 C21 2.64 21 5.28 21 8 C20.67 8 20.34 8 20 8 C19.87625 7.195625 19.7525 6.39125 19.625 5.5625 C19.41875 4.716875 19.2125 3.87125 19 3 C16.18010841 1.40371521 16.18010841 1.40371521 9 2 C9 10.58 9 19.16 9 28 C11.97 28 14.94 28 18 28 C18.99 26.02 19.98 24.04 21 22 C21.33 22 21.66 22 22 22 C22 24.64 22 27.28 22 30 C14.74 30 7.48 30 0 30 C0.99 29.34 1.98 28.68 3 28 C3.510605 25.28995497 3.510605 25.28995497 3.51171875 22.1171875 C3.56489258 20.36728516 3.56489258 20.36728516 3.61914062 18.58203125 C3.64169922 17.35871094 3.66425781 16.13539063 3.6875 14.875 C3.72166016 13.64394531 3.75582031 12.41289063 3.79101562 11.14453125 C3.87371564 8.0964449 3.94279427 5.04865429 4 2 C2.68 1.34 1.36 0.68 0 0 Z " fill="#0F0D00" transform="translate(312,114)"/>
<path d="M0 0 C4.42116304 1.35091093 6.48076658 3.13117725 9 7 C9.75 9.8125 9.75 9.8125 10 12 C10.99 12 11.98 12 13 12 C12.34 9.69 11.68 7.38 11 5 C11.99 5.33 12.98 5.66 14 6 C14.33 8.31 14.66 10.62 15 13 C10.25 14.125 10.25 14.125 8 13 C8 13.99 8 14.98 8 16 C7.34 16 6.68 16 6 16 C6 18.97 6 21.94 6 25 C5.34 25 4.68 25 4 25 C4 23.02 4 21.04 4 19 C1.69 19.33 -0.62 19.66 -3 20 C-1.6875 18.5 -1.6875 18.5 0 17 C0.99 17 1.98 17 3 17 C3 16.34 3 15.68 3 15 C1.39125 15.495 1.39125 15.495 -0.25 16 C-4 17 -4 17 -8 17 C-7.625 14.0625 -7.625 14.0625 -7 11 C-6.34 10.67 -5.68 10.34 -5 10 C-5 11.32 -5 12.64 -5 14 C-4.38511719 13.7834375 -3.77023437 13.566875 -3.13671875 13.34375 C-2.32847656 13.0653125 -1.52023437 12.786875 -0.6875 12.5 C0.11300781 12.2215625 0.91351563 11.943125 1.73828125 11.65625 C4 11 4 11 7 11 C5.17091929 6.88456841 3.69596131 4.54893883 0 2 C0 1.34 0 0.68 0 0 Z " fill="#100E00" transform="translate(261,107)"/>
<path d="M0 0 C0 0.33 0 0.66 0 1 C-0.68707031 1.0515625 -1.37414062 1.103125 -2.08203125 1.15625 C-7.28810017 1.66273294 -7.28810017 1.66273294 -11.33203125 4.59765625 C-13.58378846 10.17713348 -14.27644732 16.67902666 -12.09765625 22.34765625 C-11.14361424 24.2727161 -10.08046677 26.14294773 -9 28 C-5.37 28 -1.74 28 2 28 C-1 31 -1 31 -4.3125 31.4375 C-9.86799412 30.77837358 -12.63887136 28.46858617 -16.375 24.4375 C-18.69184263 19.53648674 -18.86773528 15.32714005 -18 10 C-16.26922042 5.50733811 -14.02518046 2.73545555 -10.125 -0.0625 C-6.37796663 -1.18661001 -3.78870103 -0.83351423 0 0 Z " fill="#D1B500" transform="translate(104,114)"/>
<path d="M0 0 C3.63 0 7.26 0 11 0 C10.34 0.66 9.68 1.32 9 2 C8.62760773 4.81402683 8.62760773 4.81402683 8.5859375 8.1015625 C8.52792969 9.91914062 8.52792969 9.91914062 8.46875 11.7734375 C8.4378125 13.04445313 8.406875 14.31546875 8.375 15.625 C8.31699219 17.543125 8.31699219 17.543125 8.2578125 19.5 C8.16328951 22.66652017 8.07773643 25.8330304 8 29 C8.99 29.33 9.98 29.66 11 30 C7.37 30 3.74 30 0 30 C0.99 29.34 1.98 28.68 3 28 C3.510605 25.28995497 3.510605 25.28995497 3.51171875 22.1171875 C3.56489258 20.36728516 3.56489258 20.36728516 3.61914062 18.58203125 C3.64169922 17.35871094 3.66425781 16.13539063 3.6875 14.875 C3.72166016 13.64394531 3.75582031 12.41289063 3.79101562 11.14453125 C3.87371564 8.0964449 3.94279427 5.04865429 4 2 C2.68 1.67 1.36 1.34 0 1 C0 0.67 0 0.34 0 0 Z " fill="#DFC100" transform="translate(45,114)"/>
<path d="M0 0 C0.74507812 0.01353516 1.49015625 0.02707031 2.2578125 0.04101562 C4.08885416 0.07622796 5.91952169 0.13003149 7.75 0.1875 C8.08 1.1775 8.41 2.1675 8.75 3.1875 C5.78 3.1875 2.81 3.1875 -0.25 3.1875 C-0.91 8.4675 -1.57 13.7475 -2.25 19.1875 C-3.57 19.5175 -4.89 19.8475 -6.25 20.1875 C-5.28644647 8.66585991 -5.28644647 8.66585991 -4.25 3.1875 C-5.57 3.5175 -6.89 3.8475 -8.25 4.1875 C-8.58 5.5075 -8.91 6.8275 -9.25 8.1875 C-10.24 8.1875 -11.23 8.1875 -12.25 8.1875 C-12.5 5.875 -12.5 5.875 -12.25 3.1875 C-8.80592562 -0.61533212 -4.76837885 -0.1642816 0 0 Z " fill="#1A1602" transform="translate(90.25,157.8125)"/>
<path d="M0 0 C0.99 0 1.98 0 3 0 C3.125 5.75 3.125 5.75 2 8 C2.99 8 3.98 8 5 8 C4.938125 7.236875 4.87625 6.47375 4.8125 5.6875 C5 3 5 3 6.1875 1.125 C8 0 8 0 10.6875 0.3125 C11.8321875 0.6528125 11.8321875 0.6528125 13 1 C12.67 2.65 12.34 4.3 12 6 C11.01 6.33 10.02 6.66 9 7 C9 7.66 9 8.32 9 9 C10.65 8.34 12.3 7.68 14 7 C14 7.99 14 8.98 14 10 C9.27685687 10.77112541 4.78478822 11.09764874 0 11 C-1.125 6.25 -1.125 6.25 0 4 C-0.66 4 -1.32 4 -2 4 C-1.34 2.68 -0.68 1.36 0 0 Z " fill="#0B0B0B" transform="translate(156,167)"/>
<path d="M0 0 C0.99 0.33 1.98 0.66 3 1 C3.45826062 6.7282577 2.55825861 9.4998494 -1 14 C-1.66 14.66 -2.32 15.32 -3 16 C-3.46290221 18.66242821 -3.46290221 18.66242821 -3.625 21.625 C-3.69976562 22.62789062 -3.77453125 23.63078125 -3.8515625 24.6640625 C-3.90054688 25.43492187 -3.94953125 26.20578125 -4 27 C-3.34 27 -2.68 27 -2 27 C-2.33 23.7 -2.66 20.4 -3 17 C-1 19 -1 19 -0.8046875 21.1640625 C-0.83949219 22.38222656 -0.83949219 22.38222656 -0.875 23.625 C-0.89304688 24.44226563 -0.91109375 25.25953125 -0.9296875 26.1015625 C-0.96449219 27.04128906 -0.96449219 27.04128906 -1 28 C-2.65 28.33 -4.3 28.66 -6 29 C-7.26237731 26.47524538 -7.09856404 24.68799534 -7.0625 21.875 C-7.05347656 20.96492188 -7.04445312 20.05484375 -7.03515625 19.1171875 C-7.02355469 18.41851562 -7.01195312 17.71984375 -7 17 C-7.66 17 -8.32 17 -9 17 C-9 18.98 -9 20.96 -9 23 C-9.33 23 -9.66 23 -10 23 C-10 20.36 -10 17.72 -10 15 C-9.01 14.67 -8.02 14.34 -7 14 C-5.33289654 12.50014391 -5.33289654 12.50014391 -4 11 C-4 11.66 -4 12.32 -4 13 C-3.34 13 -2.68 13 -2 13 C-1.01 9.37 -0.02 5.74 1 2 C0.34 1.67 -0.32 1.34 -1 1 C-0.67 0.67 -0.34 0.34 0 0 Z " fill="#0C0C0C" transform="translate(210,156)"/>
<path d="M0 0 C3.63 0 7.26 0 11 0 C9.02 0.99 9.02 0.99 7 2 C7.08054472 6.2924552 7.19341523 10.58345467 7.3125 14.875 C7.33505859 16.09832031 7.35761719 17.32164062 7.38085938 18.58203125 C7.41630859 19.74863281 7.45175781 20.91523438 7.48828125 22.1171875 C7.51446533 23.19597168 7.54064941 24.27475586 7.56762695 25.38623047 C7.71031006 26.24877441 7.85299316 27.11131836 8 28 C8.99 28.66 9.98 29.32 11 30 C7.37 30 3.74 30 0 30 C0.99 29.34 1.98 28.68 3 28 C3.510605 25.28995497 3.510605 25.28995497 3.51171875 22.1171875 C3.56489258 20.36728516 3.56489258 20.36728516 3.61914062 18.58203125 C3.64169922 17.35871094 3.66425781 16.13539063 3.6875 14.875 C3.72166016 13.64394531 3.75582031 12.41289063 3.79101562 11.14453125 C3.87371564 8.0964449 3.94279427 5.04865429 4 2 C2.68 1.34 1.36 0.68 0 0 Z " fill="#EECE00" transform="translate(132,114)"/>
<path d="M0 0 C2.33333333 0 4.66666667 0 7 0 C7.33 0.66 7.66 1.32 8 2 C8.66 1.34 9.32 0.68 10 0 C12.625 -0.125 12.625 -0.125 15 0 C15.625 2.375 15.625 2.375 16 5 C15.34 5.66 14.68 6.32 14 7 C13.01 7 12.02 7 11 7 C11 7.66 11 8.32 11 9 C12.65 9 14.3 9 16 9 C15.67 9.66 15.34 10.32 15 11 C12.625 11.125 12.625 11.125 10 11 C9.34 10.34 8.68 9.68 8 9 C7.360625 8.87625 6.72125 8.7525 6.0625 8.625 C3.24634591 7.77161997 2.49330158 6.48883597 1 4 C0.3125 1.75 0.3125 1.75 0 0 Z " fill="#222222" transform="translate(224,167)"/>
<path d="M0 0 C1.32 0.33 2.64 0.66 4 1 C3.125 7.875 3.125 7.875 2 9 C2.66 9.66 3.32 10.32 4 11 C2.35 11.33 0.7 11.66 -1 12 C-0.65772428 14.97065509 -0.65772428 14.97065509 0 18 C0.66 18.33 1.32 18.66 2 19 C2 19.66 2 20.32 2 21 C-0.4375 20.625 -0.4375 20.625 -3 20 C-4.35439668 17.29120665 -4.06501451 14.99066732 -4 12 C-4.66 12 -5.32 12 -6 12 C-6 11.34 -6 10.68 -6 10 C-5.34 10 -4.68 10 -4 10 C-3.896875 9.0925 -3.79375 8.185 -3.6875 7.25 C-2.99585051 3.98038425 -2.17865079 2.46282263 0 0 Z " fill="#0B0B0B" transform="translate(145,157)"/>
<path d="M0 0 C3.98822811 1.77254583 6.82004528 3.12452494 9 7 C9 7.99 9 8.98 9 10 C5.04 10.99 1.08 11.98 -3 13 C-1.125 1.125 -1.125 1.125 0 0 Z " fill="#C6AB00" transform="translate(259,108)"/>
<path d="M0 0 C-0.66 4.29 -1.32 8.58 -2 13 C-8.13038091 11.77392382 -8.55516833 10.82276434 -12 6 C-12 5.34 -12 4.68 -12 4 C-11.34 4 -10.68 4 -10 4 C-10 4.99 -10 5.98 -10 7 C-9.34 7 -8.68 7 -8 7 C-8.33 5.68 -8.66 4.36 -9 3 C-2.25 0 -2.25 0 0 0 Z " fill="#EFCF00" transform="translate(245,131)"/>
<path d="M0 0 C7.92 0 15.84 0 24 0 C24 2.97 24 5.94 24 9 C23.34 9 22.68 9 22 9 C21.79375 8.05125 21.5875 7.1025 21.375 6.125 C20.694375 4.578125 20.694375 4.578125 20 3 C18.02 2.34 16.04 1.68 14 1 C14 9.58 14 18.16 14 27 C13.67 27 13.34 27 13 27 C13 18.42 13 9.84 13 1 C9.7 1.66 6.4 2.32 3 3 C2.34 4.98 1.68 6.96 1 9 C0.67 9 0.34 9 0 9 C0 6.03 0 3.06 0 0 Z " fill="#B89F00" transform="translate(59,114)"/>
<path d="M0 0 C0.33 0.99 0.66 1.98 1 3 C0.01 3 -0.98 3 -2 3 C-1.34 3.66 -0.68 4.32 0 5 C0.875 6.875 0.875 6.875 1 9 C-0.28713106 10.37798737 -1.61918853 11.71589906 -3 13 C-4.33929505 11.71451591 -5.67128643 10.42141845 -7 9.125 C-7.7425 8.40570313 -8.485 7.68640625 -9.25 6.9453125 C-11 5 -11 5 -11 3 C-7.37 2.01 -3.74 1.02 0 0 Z " fill="#D5B800" transform="translate(263,126)"/>
<path d="M0 0 C7.48291572 6.15034169 7.48291572 6.15034169 10 10 C5.44573816 12.66590937 2.26053037 13.31563182 -3 13 C-2.45276317 9.62537285 -1.9451 7.91765 0 5 C0.99 5.66 1.98 6.32 3 7 C3 6.01 3 5.02 3 4 C2.01 4 1.02 4 0 4 C0 2.68 0 1.36 0 0 Z " fill="#E2C400" transform="translate(249,132)"/>
<path d="M0 0 C2.31 0 4.62 0 7 0 C6.71517632 1.41805831 6.42181856 2.83440379 6.125 4.25 C5.96257812 5.03890625 5.80015625 5.8278125 5.6328125 6.640625 C5 9 5 9 3 13 C0.03 10.03 -2.94 7.06 -6 4 C-5.67 3.34 -5.34 2.68 -5 2 C-4.34 2 -3.68 2 -3 2 C-3 2.99 -3 3.98 -3 5 C-2.34 4.67 -1.68 4.34 -1 4 C-0.34786708 1.97536745 -0.34786708 1.97536745 0 0 Z " fill="#D2B600" transform="translate(244,113)"/>
<path d="M0 0 C3.21043882 1.38188453 5.04936365 2.92421903 7.25 5.625 C7.77078125 6.25664063 8.2915625 6.88828125 8.828125 7.5390625 C9.40820312 8.26222656 9.40820312 8.26222656 10 9 C8.75336669 9.50833591 7.50250613 10.00631145 6.25 10.5 C5.55390625 10.7784375 4.8578125 11.056875 4.140625 11.34375 C2 12 2 12 -2 12 C-2 11.34 -2 10.68 -2 10 C-1.01 10 -0.02 10 1 10 C0.484375 9.608125 -0.03125 9.21625 -0.5625 8.8125 C-2 7 -2 7 -1.75 4.4375 C-1 2 -1 2 0 0 Z " fill="#D1B500" transform="translate(234,119)"/>
<path d="M0 0 C1.2065625 0.0309375 1.2065625 0.0309375 2.4375 0.0625 C3.0625 2.4375 3.0625 2.4375 3.4375 5.0625 C2.7775 5.7225 2.1175 6.3825 1.4375 7.0625 C0.4475 7.0625 -0.5425 7.0625 -1.5625 7.0625 C-1.5625 7.7225 -1.5625 8.3825 -1.5625 9.0625 C0.4175 8.4025 2.3975 7.7425 4.4375 7.0625 C3.7775 8.3825 3.1175 9.7025 2.4375 11.0625 C-0.8625 10.7325 -4.1625 10.4025 -7.5625 10.0625 C-6.9025 9.0725 -6.2425 8.0825 -5.5625 7.0625 C-4.88386945 5.0665278 -4.21608081 3.06681449 -3.5625 1.0625 C-2.5625 0.0625 -2.5625 0.0625 0 0 Z " fill="#0A0900" transform="translate(266.5625,166.9375)"/>
<path d="M0 0 C2 1 2 1 2.8125 3.125 C3.0737839 7.13135307 1.75781494 9.41405752 0 13 C-0.99 12.67 -1.98 12.34 -3 12 C-3.99 13.485 -3.99 13.485 -5 15 C-5.99 14.67 -6.98 14.34 -8 14 C-5.36 9.38 -2.72 4.76 0 0 Z " fill="#525252" transform="translate(208,156)"/>
<path d="M0 0 C5.87670739 0.77810063 8.96423839 3.87688424 13 8 C15.24639761 11.08879671 16 12.19327059 16 16 C15.01 16 14.02 16 13 16 C12.76925781 15.46890625 12.53851563 14.9378125 12.30078125 14.390625 C10.19390541 9.82711528 8.38671664 6.7416979 4 4 C1.81785432 3.22166466 1.81785432 3.22166466 0 3 C0 2.01 0 1.02 0 0 Z " fill="#E3C500" transform="translate(258,103)"/>
<path d="M0 0 C0.66 0.33 1.32 0.66 2 1 C2.144375 1.66 2.28875 2.32 2.4375 3 C2.623125 3.66 2.80875 4.32 3 5 C3.99 5.33 4.98 5.66 6 6 C6 6.99 6 7.98 6 9 C4.824375 9.185625 4.824375 9.185625 3.625 9.375 C0.85942178 9.79117993 0.85942178 9.79117993 -1 12 C-1.66 12 -2.32 12 -3 12 C-2.88541307 10.56163249 -2.75790884 9.12429034 -2.625 7.6875 C-2.55539063 6.88699219 -2.48578125 6.08648437 -2.4140625 5.26171875 C-2 3 -2 3 0 0 Z " fill="#525252" transform="translate(189,156)"/>
<path d="M0 0 C0.66 0 1.32 0 2 0 C1.34 3.63 0.68 7.26 0 11 C1.0725 10.67 2.145 10.34 3.25 10 C7 9 7 9 11 9 C11 9.66 11 10.32 11 11 C4.07 12.485 4.07 12.485 -3 14 C-1.125 3.375 -1.125 3.375 0 0 Z " fill="#D2B600" transform="translate(253,113)"/>
<path d="M0 0 C0.66 0.33 1.32 0.66 2 1 C3.31223496 4.93670488 2.24296256 7.12488144 1 11 C-0.32 10.67 -1.64 10.34 -3 10 C-3.75 7.8125 -3.75 7.8125 -4 5 C-2.0625 2.1875 -2.0625 2.1875 0 0 Z " fill="#524700" transform="translate(96,167)"/>
<path d="M0 0 C0.99 0 1.98 0 3 0 C4.6875 2 4.6875 2 6 4 C5.34 4 4.68 4 4 4 C3.34 6.31 2.68 8.62 2 11 C0.02 10.34 -1.96 9.68 -4 9 C-3.34 8.34 -2.68 7.68 -2 7 C-1.28072705 4.68234271 -0.6090107 2.34904126 0 0 Z " fill="#231E02" transform="translate(242,167)"/>
<path d="M0 0 C0.33 0 0.66 0 1 0 C1 3.63 1 7.26 1 11 C2.65 10.67 4.3 10.34 6 10 C6.66 8.68 7.32 7.36 8 6 C8 9.63 8 13.26 8 17 C7.34 16.01 6.68 15.02 6 14 C4.35 13.67 2.7 13.34 1 13 C1 16.63 1 20.26 1 24 C0.67 24 0.34 24 0 24 C0 16.08 0 8.16 0 0 Z " fill="#978300" transform="translate(153,117)"/>
<path d="M0 0 C0.78375 0.04125 1.5675 0.0825 2.375 0.125 C2.705 1.775 3.035 3.425 3.375 5.125 C1.395 6.115 1.395 6.115 -0.625 7.125 C-1.615 6.135 -2.605 5.145 -3.625 4.125 C-4.285 5.115 -4.945 6.105 -5.625 7.125 C-4.53409091 0.21590909 -4.53409091 0.21590909 0 0 Z " fill="#1F1F1F" transform="translate(128.625,166.875)"/>
<path d="M0 0 C2.0625 0.4375 2.0625 0.4375 4 1 C3.67 3.31 3.34 5.62 3 8 C4.32 7.67 5.64 7.34 7 7 C6.34 8.32 5.68 9.64 5 11 C2.5625 10.625 2.5625 10.625 0 10 C-1 8 -1 8 -0.0625 4.875 C0.4634375 3.451875 0.4634375 3.451875 1 2 C0.34 1.67 -0.32 1.34 -1 1 C-0.67 0.67 -0.34 0.34 0 0 Z " fill="#131105" transform="translate(98,167)"/>
<path d="M0 0 C0.33 0.99 0.66 1.98 1 3 C-0.9490625 2.9071875 -0.9490625 2.9071875 -2.9375 2.8125 C-8.05549789 2.78812858 -12.28068221 4.12566102 -17 6 C-17 5.01 -17 4.02 -17 3 C-11.17521449 -0.03901852 -6.51791392 -0.3540919 0 0 Z " fill="#E3C500" transform="translate(253,108)"/>
<path d="M0 0 C0.99 0 1.98 0 3 0 C2.48594831 4.96916636 1.76615118 9.29026351 0 14 C-0.66 14 -1.32 14 -2 14 C-2.21192221 8.80790596 -1.5912689 4.873261 0 0 Z " fill="#141100" transform="translate(277,158)"/>
<path d="M0 0 C2.64 0 5.28 0 8 0 C7.67 0.66 7.34 1.32 7 2 C6.34 2 5.68 2 5 2 C5 11.24 5 20.48 5 30 C4.34 29.67 3.68 29.34 3 29 C3.33 20.09 3.66 11.18 4 2 C2.68 1.34 1.36 0.68 0 0 Z " fill="#CEB200" transform="translate(190,114)"/>
<path d="M0 0 C0.99 0 1.98 0 3 0 C3.125 5.75 3.125 5.75 2 8 C2.66 8.33 3.32 8.66 4 9 C4 9.66 4 10.32 4 11 C2.35 10.67 0.7 10.34 -1 10 C-0.67 8.02 -0.34 6.04 0 4 C-0.66 4 -1.32 4 -2 4 C-1.34 2.68 -0.68 1.36 0 0 Z " fill="#181818" transform="translate(156,167)"/>
<path d="M0 0 C2.64 0 5.28 0 8 0 C7.34 0.66 6.68 1.32 6 2 C5.62731113 4.91188245 5.62731113 4.91188245 5.5859375 8.3203125 C5.54726563 9.57714844 5.50859375 10.83398438 5.46875 12.12890625 C5.42234375 14.10697266 5.42234375 14.10697266 5.375 16.125 C5.33681971 17.46486918 5.29776794 18.80471383 5.2578125 20.14453125 C5.1632797 23.42954619 5.07772844 26.71455138 5 30 C4.34 29.67 3.68 29.34 3 29 C3.33 20.09 3.66 11.18 4 2 C2.68 1.34 1.36 0.68 0 0 Z " fill="#413700" transform="translate(301,114)"/>
<path d="M0 0 C3 0 3 0 4.5 1.4609375 C5.2425 2.40839844 5.2425 2.40839844 6 3.375 C7.96614442 5.86340153 9.29359306 7.1957287 12 9 C12 9.66 12 10.32 12 11 C7.68819268 10.51594564 5.9410446 9.37995134 3.1875 6.0625 C2.58292969 5.35222656 1.97835937 4.64195312 1.35546875 3.91015625 C0 2 0 2 0 0 Z " fill="#D4B800" transform="translate(228,137)"/>
<path d="M0 0 C0.33 0.99 0.66 1.98 1 3 C1.66 3.33 2.32 3.66 3 4 C2.67 4.66 2.34 5.32 2 6 C3.98 5.34 5.96 4.68 8 4 C7.34 5.32 6.68 6.64 6 8 C2.7 7.67 -0.6 7.34 -4 7 C-2.68 4.69 -1.36 2.38 0 0 Z " fill="#111111" transform="translate(125,170)"/>
<path d="M0 0 C0 2.31 0 4.62 0 7 C-1.65 7.33 -3.3 7.66 -5 8 C-5.33 5.69 -5.66 3.38 -6 1 C-3.92446352 0.4465236 -2.15634036 0 0 0 Z " fill="#646464" transform="translate(183,170)"/>
<path d="M0 0 C0.78375 0.04125 1.5675 0.0825 2.375 0.125 C2.705 1.775 3.035 3.425 3.375 5.125 C2.385 5.785 1.395 6.445 0.375 7.125 C-2.625 6.125 -2.625 6.125 -3.8125 4.0625 C-4.2146875 3.1034375 -4.2146875 3.1034375 -4.625 2.125 C-2.625 0.125 -2.625 0.125 0 0 Z " fill="#171400" transform="translate(266.625,166.875)"/>
<path d="M0 0 C0.66 0 1.32 0 2 0 C2.55353075 12.66970387 2.55353075 12.66970387 -1 18 C-1.66 17.67 -2.32 17.34 -3 17 C-2.690625 16.236875 -2.38125 15.47375 -2.0625 14.6875 C-0.66197419 9.82685159 -0.34020266 5.03141827 0 0 Z " fill="#F6D500" transform="translate(267,123)"/>
<path d="M0 0 C0.66 0 1.32 0 2 0 C4 3 4 3 3.6875 5.5 C3.17901328 7.34904262 2.60642538 9.18072387 2 11 C1.34 11 0.68 11 0 11 C0 10.34 0 9.68 0 9 C-0.66 9 -1.32 9 -2 9 C-1.34 6.03 -0.68 3.06 0 0 Z " fill="#070707" transform="translate(222,167)"/>
<path d="M0 0 C1.32 0 2.64 0 4 0 C3.38461538 6.52307692 3.38461538 6.52307692 1.4375 8.9375 C0.963125 9.288125 0.48875 9.63875 0 10 C-2 7 -2 7 -1.6875 4.4375 C-1 2 -1 2 0 0 Z " fill="#6B6B6B" transform="translate(199,158)"/>
<path d="M0 0 C0.66 0.33 1.32 0.66 2 1 C1.98428955 1.71655762 1.9685791 2.43311523 1.95239258 3.17138672 C1.89018137 6.40584476 1.85105351 9.64017719 1.8125 12.875 C1.78736328 14.00292969 1.76222656 15.13085938 1.73632812 16.29296875 C1.72666016 17.36933594 1.71699219 18.44570312 1.70703125 19.5546875 C1.6913208 20.54968262 1.67561035 21.54467773 1.65942383 22.56982422 C1.77181396 23.37178223 1.8842041 24.17374023 2 25 C2.99 25.66 3.98 26.32 5 27 C2.36 27 -0.28 27 -3 27 C-2.34 26.34 -1.68 25.68 -1 25 C-0.62826984 22.3817233 -0.62826984 22.3817233 -0.5859375 19.3359375 C-0.54726563 18.21445313 -0.50859375 17.09296875 -0.46875 15.9375 C-0.4378125 14.761875 -0.406875 13.58625 -0.375 12.375 C-0.33632813 11.19164062 -0.29765625 10.00828125 -0.2578125 8.7890625 C-0.16331155 5.85953309 -0.07775442 2.93001403 0 0 Z " fill="#211D00" transform="translate(286,117)"/>
<path d="M0 0 C0.66 0.33 1.32 0.66 2 1 C1.98428955 1.71655762 1.9685791 2.43311523 1.95239258 3.17138672 C1.89018137 6.40584476 1.85105351 9.64017719 1.8125 12.875 C1.78736328 14.00292969 1.76222656 15.13085938 1.73632812 16.29296875 C1.72666016 17.36933594 1.71699219 18.44570312 1.70703125 19.5546875 C1.6913208 20.54968262 1.67561035 21.54467773 1.65942383 22.56982422 C1.77181396 23.37178223 1.8842041 24.17374023 2 25 C2.99 25.66 3.98 26.32 5 27 C2.36 27 -0.28 27 -3 27 C-2.34 26.34 -1.68 25.68 -1 25 C-0.62826984 22.3817233 -0.62826984 22.3817233 -0.5859375 19.3359375 C-0.54726562 18.21445313 -0.50859375 17.09296875 -0.46875 15.9375 C-0.4378125 14.761875 -0.406875 13.58625 -0.375 12.375 C-0.33632812 11.19164062 -0.29765625 10.00828125 -0.2578125 8.7890625 C-0.16331155 5.85953309 -0.07775442 2.93001403 0 0 Z " fill="#C8AC00" transform="translate(175,117)"/>
<path d="M0 0 C0.99 0.66 1.98 1.32 3 2 C3.36328125 4.27734375 3.36328125 4.27734375 3.3125 6.9375 C3.30863281 7.81277344 3.30476562 8.68804687 3.30078125 9.58984375 C3 12 3 12 1 15 C0.01 14.67 -0.98 14.34 -2 14 C-2 13.34 -2 12.68 -2 12 C-1.34 12 -0.68 12 0 12 C0 8.04 0 4.08 0 0 Z " fill="#656565" transform="translate(199,171)"/>
<path d="M0 0 C6.93 0 13.86 0 21 0 C21 2.64 21 5.28 21 8 C19 4.25 19 4.25 19 2 C13.06 2 7.12 2 1 2 C0.67 1.34 0.34 0.68 0 0 Z " fill="#B79E00" transform="translate(146,114)"/>
<path d="M0 0 C0.99 0 1.98 0 3 0 C3 3.63 3 7.26 3 11 C1.68 10.67 0.36 10.34 -1 10 C-0.67 7.69 -0.34 5.38 0 3 C-0.66 2.67 -1.32 2.34 -2 2 C-1.34 1.34 -0.68 0.68 0 0 Z " fill="#090800" transform="translate(248,167)"/>
<path d="M0 0 C6.93 0 13.86 0 21 0 C21 2.64 21 5.28 21 8 C20.67 8 20.34 8 20 8 C19.87625 7.195625 19.7525 6.39125 19.625 5.5625 C19.41875 4.716875 19.2125 3.87125 19 3 C15.50977375 1.25488688 11.2618896 2.00816135 7.41015625 2.12695312 C5.60652196 2.1568379 3.80189121 2.08472195 2 2 C1.34 1.34 0.68 0.68 0 0 Z " fill="#473D00" transform="translate(312,114)"/>
<path d="M0 0 C1.32 0.66 2.64 1.32 4 2 C3.01 2.33 2.02 2.66 1 3 C0.67 5.31 0.34 7.62 0 10 C-1.32 10.33 -2.64 10.66 -4 11 C-3.39301257 6.87248551 -1.96189209 3.6678852 0 0 Z " fill="#E5E5E5" transform="translate(190,164)"/>
<path d="M0 0 C0.99 0.33 1.98 0.66 3 1 C1 4 1 4 -2 5 C-2 8.3 -2 11.6 -2 15 C-2.66 15 -3.32 15 -4 15 C-4.63019694 4.84682713 -4.63019694 4.84682713 -2 1.3125 C-1.34 0.879375 -0.68 0.44625 0 0 Z " fill="#B1B1B1" transform="translate(210,168)"/>
<path d="M0 0 C0 0.66 0 1.32 0 2 C-5.36439644 4.68219822 -9.01006953 5.3152595 -15 5 C-15 4.34 -15 3.68 -15 3 C-14.38511719 2.86722656 -13.77023438 2.73445312 -13.13671875 2.59765625 C-12.32847656 2.42105469 -11.52023438 2.24445313 -10.6875 2.0625 C-9.88699219 1.88847656 -9.08648437 1.71445313 -8.26171875 1.53515625 C-1.77372263 0 -1.77372263 0 0 0 Z " fill="#E4C500" transform="translate(261,145)"/>
<path d="M0 0 C0.33 0 0.66 0 1 0 C1 2.64 1 5.28 1 8 C-4.61 8 -10.22 8 -16 8 C-12.25631258 6.12815629 -11.1599209 5.76000233 -7.25 5.875 C-6.45078125 5.89304688 -5.6515625 5.91109375 -4.828125 5.9296875 C-4.22484375 5.95289063 -3.6215625 5.97609375 -3 6 C-2.01 4.02 -1.02 2.04 0 0 Z " fill="#1F1B00" transform="translate(333,136)"/>
<path d="M0 0 C0.33 0 0.66 0 1 0 C1 2.64 1 5.28 1 8 C-4.61 8 -10.22 8 -16 8 C-16 7.67 -16 7.34 -16 7 C-15.15695313 6.93941406 -14.31390625 6.87882813 -13.4453125 6.81640625 C-12.34960938 6.73261719 -11.25390625 6.64882812 -10.125 6.5625 C-9.03445312 6.48128906 -7.94390625 6.40007812 -6.8203125 6.31640625 C-4.05271029 6.16998297 -4.05271029 6.16998297 -2 5 C-1.27840576 3.35636866 -0.60648579 1.68949614 0 0 Z " fill="#DDBE00" transform="translate(167,136)"/>
<path d="M0 0 C-0.66 1.98 -1.32 3.96 -2 6 C-3.65 5.67 -5.3 5.34 -7 5 C-7 3.35 -7 1.7 -7 0 C-2.25 -1.125 -2.25 -1.125 0 0 Z " fill="#F0F0F0" transform="translate(125,169)"/>
<path d="M0 0 C-1.93254772 2.0245738 -3.63158688 3.42105792 -6 5 C-6 5.99 -6 6.98 -6 8 C-6.66 8 -7.32 8 -8 8 C-8 7.01 -8 6.02 -8 5 C-8.66 4.67 -9.32 4.34 -10 4 C-9.34 4 -8.68 4 -8 4 C-7.896875 3.360625 -7.79375 2.72125 -7.6875 2.0625 C-7.460625 1.381875 -7.23375 0.70125 -7 0 C-3.86650268 -1.04449911 -3.01031744 -0.93423645 0 0 Z " fill="#322B00" transform="translate(243,130)"/>
<path d="M0 0 C0.66 0 1.32 0 2 0 C1.01 4.62 0.02 9.24 -1 14 C-1.66 14 -2.32 14 -3 14 C-3.57293869 4.26004228 -3.57293869 4.26004228 0 0 Z " fill="#ECCC00" transform="translate(230,117)"/>
<path d="M0 0 C1.65 0 3.3 0 5 0 C5 1.65 5 3.3 5 5 C3.35 5.33 1.7 5.66 0 6 C0 4.02 0 2.04 0 0 Z " fill="#F8F8F8" transform="translate(144,169)"/>
<path d="M0 0 C0.99 0.33 1.98 0.66 3 1 C3.36923077 7.4 3.36923077 7.4 1.5 10.4375 C1.005 10.953125 0.51 11.46875 0 12 C-1.31223496 8.06329512 -0.24296256 5.87511856 1 2 C0.34 1.67 -0.32 1.34 -1 1 C-0.67 0.67 -0.34 0.34 0 0 Z " fill="#1A1A1A" transform="translate(210,156)"/>
<path d="M0 0 C0.99 0.33 1.98 0.66 3 1 C2.40138258 3.35171131 1.73075648 5.6859378 1 8 C0.01 8.495 0.01 8.495 -1 9 C-2.1875 6.75 -2.1875 6.75 -3 4 C-1.625 1.6875 -1.625 1.6875 0 0 Z " fill="#666666" transform="translate(145,157)"/>
<path d="M0 0 C1.65 0.33 3.3 0.66 5 1 C5 2.65 5 4.3 5 6 C4.01 6.33 3.02 6.66 2 7 C1.67 6.34 1.34 5.68 1 5 C1.66 5 2.32 5 3 5 C3 4.01 3 3.02 3 2 C1.35 2.66 -0.3 3.32 -2 4 C-1.34 2.68 -0.68 1.36 0 0 Z " fill="#0C0C0C" transform="translate(214,167)"/>
<path d="M0 0 C0.33 0 0.66 0 1 0 C1 3.3 1 6.6 1 10 C-1.79705825 8.60147088 -1.90914993 6.86348142 -3 4 C-3.66 3.01 -4.32 2.02 -5 1 C-2.525 1.495 -2.525 1.495 0 2 C0 1.34 0 0.68 0 0 Z " fill="#C2A800" transform="translate(109,114)"/>
<path d="M0 0 C0.33 0.99 0.66 1.98 1 3 C2.32 2.67 3.64 2.34 5 2 C4.67 3.32 4.34 4.64 4 6 C2.35 6 0.7 6 -1 6 C-1.042721 4.33388095 -1.04063832 2.66617115 -1 1 C-0.67 0.67 -0.34 0.34 0 0 Z " fill="#E9CA00" transform="translate(257,169)"/>
<path d="M0 0 C0 1.32 0 2.64 0 4 C-0.99 4.33 -1.98 4.66 -3 5 C-4.5 3.625 -4.5 3.625 -6 2 C-6 1.34 -6 0.68 -6 0 C-3 -1 -3 -1 0 0 Z " fill="#C3A900" transform="translate(258,129)"/>
<path d="M0 0 C-1 2 -1 2 -4.3125 3.125 C-8 4 -8 4 -12 4 C-12 3.34 -12 2.68 -12 2 C-10.56656 1.46809459 -9.12804633 0.94984742 -7.6875 0.4375 C-6.48673828 0.00244141 -6.48673828 0.00244141 -5.26171875 -0.44140625 C-3 -1 -3 -1 0 0 Z " fill="#F2D200" transform="translate(244,127)"/>
<path d="M0 0 C0.66 0.33 1.32 0.66 2 1 C2.625 3.0625 2.625 3.0625 3 5 C-0.75 6.125 -0.75 6.125 -3 5 C-1.125 1.125 -1.125 1.125 0 0 Z " fill="#535353" transform="translate(164,167)"/>
<path d="M0 0 C1.485 0.99 1.485 0.99 3 2 C3.1875 4.625 3.1875 4.625 3 7 C2.34 7 1.68 7 1 7 C1 8.65 1 10.3 1 12 C0.67 12 0.34 12 0 12 C0 8.04 0 4.08 0 0 Z " fill="#3A3200" transform="translate(269,121)"/>
<path d="M0 0 C2.97 0 5.94 0 9 0 C4.25 4.875 4.25 4.875 2 6 C2 4.68 2 3.36 2 2 C1.34 1.34 0.68 0.68 0 0 Z " fill="#B69E00" transform="translate(33,114)"/>
<path d="M0 0 C2.0625 0.4375 2.0625 0.4375 4 1 C3.67 2.65 3.34 4.3 3 6 C2.01 6.33 1.02 6.66 0 7 C0.33 5.35 0.66 3.7 1 2 C0.34 1.67 -0.32 1.34 -1 1 C-0.67 0.67 -0.34 0.34 0 0 Z " fill="#1D1D1D" transform="translate(236,167)"/>
<path d="M0 0 C1.32 0 2.64 0 4 0 C3.67 2.97 3.34 5.94 3 9 C2.34 8.67 1.68 8.34 1 8 C1.33 6.02 1.66 4.04 2 2 C1.01 1.67 0.02 1.34 -1 1 C-0.67 0.67 -0.34 0.34 0 0 Z " fill="#0D0D0D" transform="translate(201,156)"/>
<path d="M0 0 C-0.33 2.97 -0.66 5.94 -1 9 C-1.33 8.01 -1.66 7.02 -2 6 C-2.99 6 -3.98 6 -5 6 C-5 3 -5 3 -3.625 1.3125 C-2 0 -2 0 0 0 Z " fill="#AF9800" transform="translate(245,131)"/>
<path d="M0 0 C0.33 1.32 0.66 2.64 1 4 C-0.875 5.0625 -0.875 5.0625 -3 6 C-3.66 5.67 -4.32 5.34 -5 5 C-4.67 3.68 -4.34 2.36 -4 1 C-3.01 1.33 -2.02 1.66 -1 2 C-0.67 1.34 -0.34 0.68 0 0 Z " fill="#6F6F6F" transform="translate(131,168)"/>
<path d="M0 0 C0.66 0 1.32 0 2 0 C1.38461538 6.52307692 1.38461538 6.52307692 -0.5625 8.9375 C-1.036875 9.288125 -1.51125 9.63875 -2 10 C-1.54177532 6.53058454 -1.10868317 3.32604951 0 0 Z " fill="#D8D8D8" transform="translate(209,158)"/>
<path d="M0 0 C0.99 0 1.98 0 3 0 C4.4606285 2.64738916 5 3.89448334 5 7 C4.01 7 3.02 7 2 7 C1.34 4.69 0.68 2.38 0 0 Z " fill="#CCB000" transform="translate(269,112)"/>
<path d="M0 0 C1.98 0.495 1.98 0.495 4 1 C4 1.99 4 2.98 4 4 C3.01 4.33 2.02 4.66 1 5 C0.34 4.67 -0.32 4.34 -1 4 C-0.67 2.68 -0.34 1.36 0 0 Z " fill="#988400" transform="translate(254,139)"/>
<path d="M0 0 C0.185625 0.9590625 0.185625 0.9590625 0.375 1.9375 C0.684375 2.9584375 0.684375 2.9584375 1 4 C1.66 4.33 2.32 4.66 3 5 C2.67 5.66 2.34 6.32 2 7 C0.68 7 -0.64 7 -2 7 C-1.125 1.125 -1.125 1.125 0 0 Z " fill="#0B0A00" transform="translate(255,117)"/>
<path d="M0 0 C-0.33 0.99 -0.66 1.98 -1 3 C-3.31 3 -5.62 3 -8 3 C-7.67 2.01 -7.34 1.02 -7 0 C-4.05610218 -1.17755913 -3.10046087 -1.03348696 0 0 Z " fill="#252000" transform="translate(265,120)"/>
<path d="M0 0 C5.75 0.875 5.75 0.875 8 2 C7.67 2.99 7.34 3.98 7 5 C4.36 4.01 1.72 3.02 -1 2 C-0.67 1.34 -0.34 0.68 0 0 Z " fill="#0C0B00" transform="translate(258,101)"/>
<path d="M0 0 C1.32 0 2.64 0 4 0 C3.625 2.4375 3.625 2.4375 3 5 C2.01 5.495 2.01 5.495 1 6 C-0.0625 4.125 -0.0625 4.125 -1 2 C-0.67 1.34 -0.34 0.68 0 0 Z " fill="#727272" transform="translate(117,160)"/>
<path d="M0 0 C0.99 0 1.98 0 3 0 C3.33 1.65 3.66 3.3 4 5 C2.35 4.67 0.7 4.34 -1 4 C-0.67 2.68 -0.34 1.36 0 0 Z " fill="#8F7C00" transform="translate(239,139)"/>
<path d="M0 0 C0.33 0 0.66 0 1 0 C1 3.3 1 6.6 1 10 C0.67 9.34 0.34 8.68 0 8 C-0.99 7.67 -1.98 7.34 -3 7 C-2.01 4.69 -1.02 2.38 0 0 Z " fill="#DABC00" transform="translate(109,134)"/>
<path d="M0 0 C0 2.97 0 5.94 0 9 C0.66 9.33 1.32 9.66 2 10 C1.01 10 0.02 10 -1 10 C-1.144375 9.2575 -1.28875 8.515 -1.4375 7.75 C-1.90187492 5.47972261 -2.41863569 3.24240521 -3 1 C-1 0 -1 0 0 0 Z " fill="#4E4400" transform="translate(227,122)"/>
<path d="M0 0 C1.32 0.66 2.64 1.32 4 2 C3.67 2.99 3.34 3.98 3 5 C1.35 5 -0.3 5 -2 5 C-1.34 3.35 -0.68 1.7 0 0 Z " fill="#B59D00" transform="translate(234,119)"/>
<path d="M0 0 C0.66 0 1.32 0 2 0 C2.66 0.99 3.32 1.98 4 3 C3.67 3.99 3.34 4.98 3 6 C1.68 6 0.36 6 -1 6 C-0.67 4.02 -0.34 2.04 0 0 Z " fill="#151515" transform="translate(222,167)"/>
<path d="M0 0 C0.66 0.33 1.32 0.66 2 1 C2.625 3.0625 2.625 3.0625 3 5 C2.01 5.33 1.02 5.66 0 6 C-0.66 4.68 -1.32 3.36 -2 2 C-1.34 1.34 -0.68 0.68 0 0 Z " fill="#6C5E00" transform="translate(264,167)"/>
<path d="M0 0 C0.66 0.33 1.32 0.66 2 1 C2.625 3.0625 2.625 3.0625 3 5 C2.01 5.33 1.02 5.66 0 6 C-0.66 4.68 -1.32 3.36 -2 2 C-1.34 1.34 -0.68 0.68 0 0 Z " fill="#6B6B6B" transform="translate(234,167)"/>
<path d="M0 0 C2.49361571 1.20381448 4.68143083 2.45428722 7 4 C7 4.66 7 5.32 7 6 C3.75728494 5.4409112 2.06942576 4.5867822 0 2 C0 1.34 0 0.68 0 0 Z " fill="#0B0A00" transform="translate(233,139)"/>
<path d="M0 0 C0.99 0.33 1.98 0.66 3 1 C2.01 2.98 1.02 4.96 0 7 C-0.66 6.67 -1.32 6.34 -2 6 C-1.34 4.02 -0.68 2.04 0 0 Z " fill="#E0C300" transform="translate(266,134)"/>
<path d="M0 0 C1.98 0.99 1.98 0.99 4 2 C4 2.66 4 3.32 4 4 C3.01 4 2.02 4 1 4 C1 4.66 1 5.32 1 6 C1.66 6.33 2.32 6.66 3 7 C2.01 7 1.02 7 0 7 C0 4.69 0 2.38 0 0 Z " fill="#6A5C00" transform="translate(231,125)"/>
<path d="M0 0 C0.33 0 0.66 0 1 0 C1 3.63 1 7.26 1 11 C0.01 9.68 -0.98 8.36 -2 7 C-1.1875 3.25 -1.1875 3.25 0 0 Z " fill="#ECCC00" transform="translate(160,123)"/>
<path d="M0 0 C0.33 0.66 0.66 1.32 1 2 C2.32 2 3.64 2 5 2 C5 3.65 5 5.3 5 7 C2.5 5.1875 2.5 5.1875 0 3 C0 2.01 0 1.02 0 0 Z " fill="#E4C600" transform="translate(243,119)"/>
</svg>
